<?xml version="1.0" encoding="UTF-8"?>
<svg xmlns="http://www.w3.org/2000/svg" viewBox="0 0 24 24" fill="#EDB33C">
    <path d="M22.46 6c-.77.35-1.6.58-2.46.69a4.28 4.28 0 001.88-2.37 8.59 8.59 0 01-2.72 1.04 4.27 4.27 0 00-7.29 3.89A12.13 12.13 0 013 4.79a4.27 4.27 0 001.32 5.69 4.23 4.23 0 01-1.93-.53v.05a4.27 4.27 0 003.42 4.18 4.3 4.3 0 01-1.92.07 4.27 4.27 0 003.98 2.96A8.56 8.56 0 012 19.54a12.07 12.07 0 006.56 1.92c7.88 0 12.2-6.53 12.2-12.2v-.56A8.72 8.72 0 0024 4.56a8.47 8.47 0 01-2.54.7z"/>
</svg>
